<svg width="20" height="21" viewBox="0 0 20 21" fill="none" xmlns="http://www.w3.org/2000/svg">
<g clip-path="url(#clip0_96_216)">
<path d="M10.1278 0.942953C4.63251 0.960884 0.232852 5.44775 0.275484 11.041C0.317051 16.589 4.79132 21.0189 10.2771 20.9419C15.6903 20.866 20.0122 16.4065 20.0004 10.8997C19.9887 5.39291 15.5432 0.920803 10.1278 0.942953Z" fill="white"/>
<path d="M10.1278 0.942919C15.5432 0.926043 19.9887 5.40553 20.0004 10.8997C20.0122 16.3938 15.6903 20.8659 10.2771 20.9419C4.79132 21.0189 0.317051 16.5889 0.275484 11.041C0.232852 5.44244 4.63251 0.955576 10.1278 0.942919ZM13.2688 16.9497C13.3459 16.9297 13.4203 16.9007 13.4905 16.8632C14.385 16.3003 15.1912 15.6105 15.8832 14.8159C16.1347 14.5227 16.122 14.3529 15.8161 14.1208C15.0118 13.4993 14.1399 12.9687 13.2166 12.5387C12.9128 12.3995 12.8148 12.428 12.5856 12.6801C12.3351 12.9554 12.0921 13.237 11.8481 13.5239C11.8207 13.5674 11.7774 13.5989 11.7273 13.6119C11.6771 13.6248 11.6238 13.6182 11.5784 13.5935C11.0892 13.3635 10.5701 13.1853 10.1172 12.8984C8.86948 12.1188 7.95114 10.9165 7.53365 9.51586C7.50869 9.45978 7.50373 9.39697 7.51962 9.33774C7.5355 9.27851 7.57127 9.22638 7.62105 9.18993C7.88537 8.95895 8.15395 8.72586 8.40548 8.48643C8.67939 8.23224 8.70392 8.14047 8.54938 7.79557C8.13112 6.8849 7.61855 6.0196 7.01993 5.21356C6.77799 4.88238 6.60853 4.86339 6.30477 5.13235C5.52171 5.83578 4.84731 6.64923 4.30318 7.54665C4.23672 7.66659 4.21342 7.80531 4.2371 7.94007C4.31033 8.35522 4.41037 8.7653 4.53659 9.16779C5.0322 10.6297 5.87632 11.8795 6.88138 13.0197C8.17954 14.4879 9.67167 15.6998 11.4793 16.4729C12.048 16.7196 12.6515 16.8786 13.2688 16.9444V16.9497ZM10.5648 5.75887C13.4063 6.07529 14.9485 7.65108 15.2544 10.5052H16.0463C16.0793 7.27031 13.289 4.84862 10.5691 4.97202L10.5648 5.75887ZM13.9253 10.5105C13.9626 8.37357 11.9962 6.95705 10.568 7.12792V7.93796C11.2395 7.94892 11.8794 8.2223 12.3479 8.69843C12.8242 9.18493 13.0945 9.83317 13.1036 10.5105H13.9253Z" fill="white"/>
<path d="M13.2683 16.9442C12.6519 16.8746 12.0499 16.712 11.4831 16.4621C9.67123 15.689 8.17909 14.4771 6.8852 13.0089C5.87588 11.8687 5.03175 10.6189 4.54042 9.157C4.41419 8.75452 4.31416 8.34443 4.24093 7.92928C4.21725 7.79452 4.24055 7.6558 4.30701 7.53587C4.85115 6.63845 5.52555 5.825 6.30861 5.12156C6.61236 4.85261 6.78182 4.87159 7.02376 5.20278C7.62239 6.00882 8.13494 6.87411 8.5532 7.78479C8.70774 8.12969 8.68323 8.22145 8.40931 8.47565C8.15245 8.71507 7.8892 8.94816 7.62488 9.17915C7.5751 9.2156 7.53933 9.26772 7.52345 9.32694C7.50757 9.38617 7.51251 9.449 7.53748 9.50507C7.95497 10.9057 8.87331 12.108 10.121 12.8876C10.574 13.1745 11.093 13.3528 11.5822 13.5827C11.6276 13.6075 11.6809 13.614 11.7311 13.6011C11.7813 13.5881 11.8245 13.5566 11.8519 13.5131C12.096 13.2304 12.339 12.9488 12.5894 12.6693C12.8186 12.4172 12.9166 12.3887 13.2204 12.528C14.1437 12.9579 15.0156 13.4886 15.8199 14.1101C16.1258 14.3421 16.1396 14.5119 15.887 14.8051C15.195 15.5998 14.3888 16.2895 13.4943 16.8524C13.4231 16.892 13.3472 16.9229 13.2683 16.9442Z" fill="#2F383B"/>
<path d="M10.5644 5.75326V4.96643C13.2843 4.84302 16.0746 7.2647 16.0416 10.4996H15.2497C14.9481 7.64547 13.4058 6.06863 10.5644 5.75326Z" fill="#2F383B"/>
<path d="M13.9249 10.5049H13.1032C13.0941 9.82762 12.8238 9.17937 12.3475 8.69287C11.8789 8.21674 11.2391 7.94336 10.5676 7.93241V7.12236C11.9958 6.95465 13.9622 8.36802 13.9249 10.5049Z" fill="#2F383B"/>
</g>
<defs>
<clipPath id="clip0_96_216">
<rect width="19.726" height="20" fill="white" transform="translate(0.273987 0.9375)"/>
</clipPath>
</defs>
</svg>
