<svg width="20" height="21" viewBox="0 0 20 21" fill="none" xmlns="http://www.w3.org/2000/svg">
<g clip-path="url(#clip0_96_224)">
<path d="M0.273941 11.5681V10.3186C0.286054 10.2555 0.299033 10.1924 0.30855 10.1293C0.38036 9.65402 0.416702 9.1709 0.529174 8.70619C1.27669 5.61632 3.06673 3.35064 5.87423 1.93898C7.73349 1.00431 9.71388 0.734248 11.7574 1.08673C14.3166 1.52513 16.4034 2.80702 17.9763 4.89646C19.6202 7.08409 20.2569 9.56809 19.9074 12.2923C19.6618 14.262 18.8225 16.1068 17.5039 17.5751C16.0389 19.268 14.0449 20.3999 11.8552 20.7816C11.491 20.8491 11.1215 20.8868 10.7538 20.9377H9.52095C9.28043 20.907 9.03905 20.8816 8.79939 20.85C6.87307 20.5886 5.06856 19.7471 3.61958 18.4344C1.93515 16.9479 0.807928 14.9183 0.427945 12.6878C0.362192 12.3151 0.324986 11.9399 0.273941 11.5681ZM10.124 15.4848C11.7967 15.4848 13.4722 15.4848 15.1507 15.4848C15.9838 15.4848 16.4934 14.9666 16.4943 14.1231V7.76187C16.4943 6.91838 15.9838 6.40194 15.1489 6.40194H5.13451C4.28836 6.40194 3.78137 6.91663 3.78137 7.77327C3.78137 9.87761 3.79608 11.9881 3.77359 14.0951C3.76493 14.8623 4.29961 15.5058 5.15787 15.4927C6.81122 15.4664 8.46804 15.4848 10.124 15.4848Z" fill="white"/>
<path d="M10.124 15.4847C8.46808 15.4847 6.81126 15.4663 5.15531 15.4926C4.29965 15.5058 3.76498 14.8622 3.77103 14.095C3.79353 11.9906 3.77795 9.88016 3.77882 7.77319C3.77882 6.91654 4.28581 6.40186 5.13195 6.40186H15.1464C15.9813 6.40186 16.4909 6.9183 16.4917 7.76179V14.123C16.4917 14.9665 15.9813 15.4838 15.1481 15.4847C13.4743 15.4859 11.7996 15.4859 10.124 15.4847ZM4.80233 7.95819V14.0757C4.80233 14.4115 4.84817 14.4571 5.18213 14.4571H15.0815C15.4276 14.4571 15.4725 14.415 15.4725 14.0678V7.95819C15.3497 8.05552 15.2658 8.12215 15.1827 8.18967L10.5229 11.938C10.2452 12.1616 10.0323 12.1616 9.75978 11.9433L6.53355 9.34705L4.80233 7.95819ZM14.4707 7.44438H5.85351C5.8587 7.50137 5.89331 7.51715 5.92186 7.54083C7.28538 8.63567 8.64716 9.73227 10.0072 10.8306C10.1206 10.9227 10.1803 10.8973 10.2832 10.8175C11.3416 9.9617 12.4017 9.10798 13.4636 8.2563L14.4707 7.44438Z" fill="white"/>
<path d="M4.80232 7.95801L6.53267 9.39773L9.75891 12.0843C10.0314 12.3105 10.2443 12.3096 10.522 12.0781C12.0759 10.7863 13.6291 9.49388 15.1818 8.20088L15.4717 7.96152V14.2745C15.4717 14.634 15.4284 14.677 15.0806 14.677C11.7808 14.677 8.48105 14.677 5.18127 14.677C4.84731 14.677 4.80145 14.6305 4.80145 14.2824V7.95801H4.80232Z" fill="black"/>
<path d="M14.4707 7.44238L13.4636 8.25431C12.4029 9.10774 11.3428 9.96145 10.2832 10.8155C10.1846 10.8953 10.1206 10.9207 10.0072 10.8286C8.64889 9.72793 7.2871 8.63134 5.92185 7.53883C5.8933 7.51516 5.85869 7.49938 5.8535 7.44238H14.4707Z" fill="black"/>
</g>
<defs>
<clipPath id="clip0_96_224">
<rect width="19.726" height="20" fill="white" transform="translate(0.273987 0.9375)"/>
</clipPath>
</defs>
</svg>
