<svg width="20" height="21" viewBox="0 0 20 21" fill="none" xmlns="http://www.w3.org/2000/svg">
<g clip-path="url(#clip0_96_231)">
<path d="M0.273987 11.0639V9.81605C0.288755 9.68628 0.305971 9.56648 0.32074 9.43171C0.542026 7.26035 1.45666 5.22167 2.92551 3.62565C4.39436 2.02963 6.3371 0.963621 8.45829 0.589704C8.81028 0.529809 9.16718 0.489854 9.52163 0.439941H10.7523C10.8016 0.439941 10.8508 0.467364 10.9001 0.472355C12.4168 0.574039 13.8866 1.04764 15.183 1.85245C16.4094 2.5814 17.4637 3.57378 18.2716 4.75984C19.0796 5.94589 19.6216 7.29686 19.8597 8.71794C19.9262 9.0798 19.9606 9.44919 20.0099 9.81605V11.0639C19.9828 11.3134 19.9557 11.538 19.9237 11.7776C19.6394 13.8768 18.7063 15.8308 17.2584 17.3588C15.8105 18.8869 13.9223 19.9105 11.8649 20.2827C11.5006 20.3501 11.1265 20.3875 10.7647 20.4374H9.53395C9.2878 20.4075 9.04167 20.3825 8.81029 20.3476C6.74357 20.0559 4.82089 19.1086 3.31759 17.6414C1.8143 16.1742 0.807502 14.2622 0.441378 12.1794C0.360151 11.8101 0.323216 11.4357 0.273987 11.0639ZM10.137 16.941C10.2108 16.8587 10.2748 16.7963 10.329 16.7264C11.0674 15.828 11.8059 14.9445 12.5098 14.0237C13.3086 13.0038 13.9892 11.8943 14.5381 10.7169C14.89 9.93581 15.1239 9.13475 14.9861 8.26128C14.6784 6.31967 13.6446 4.92959 11.8256 4.25078C10.0066 3.57197 8.33278 3.92387 6.87314 5.20912C5.59565 6.33465 4.65784 8.53577 5.73349 10.7269C6.20966 11.6915 6.7594 12.6169 7.37772 13.4946C8.23097 14.6966 9.15227 15.8473 10.137 16.941Z" fill="white"/>
<path d="M10.1198 16.8736C9.13446 15.7804 8.21313 14.6296 7.36051 13.4271C6.74219 12.5494 6.19243 11.624 5.71625 10.6595C4.63322 8.4683 5.57841 6.26719 6.8559 5.14166C8.31554 3.85641 9.99917 3.50949 11.8083 4.18331C13.6175 4.85713 14.6611 6.25221 14.9688 8.19381C15.1067 9.06728 14.8728 9.87084 14.5209 10.6495C13.972 11.8269 13.2914 12.9364 12.4926 13.9562C11.7911 14.8771 11.0428 15.7605 10.3118 16.659C10.2601 16.7289 10.1961 16.7938 10.1198 16.8736ZM8.39677 9.0473C8.39337 9.41867 8.49873 9.78269 8.69949 10.0933C8.90026 10.404 9.18742 10.6472 9.52461 10.7923C9.86181 10.9374 10.2339 10.9778 10.5937 10.9084C10.9536 10.8389 11.285 10.6629 11.5461 10.4023C11.8071 10.1418 11.9861 9.80866 12.0603 9.44498C12.1345 9.08129 12.1006 8.70344 11.963 8.35929C11.8253 8.01514 11.59 7.72015 11.2868 7.51165C10.9837 7.30316 10.6264 7.19055 10.2601 7.18806C9.77019 7.1854 9.29921 7.37943 8.95006 7.72783C8.6009 8.07623 8.40197 8.55063 8.39677 9.0473Z" fill="black"/>
<path d="M8.286 8.94788C8.286 7.72252 9.18933 6.73673 10.2896 6.74172C11.3899 6.74671 12.276 7.75746 12.2587 9.00278C12.2415 10.2481 11.3456 11.2064 10.2453 11.1964C9.14504 11.1865 8.28108 10.1707 8.286 8.94788Z" fill="white"/>
</g>
<defs>
<clipPath id="clip0_96_231">
<rect width="19.726" height="20" fill="white" transform="translate(0.273987 0.4375)"/>
</clipPath>
</defs>
</svg>
