<svg width="50" height="50" viewBox="0 0 50 50" fill="none" xmlns="http://www.w3.org/2000/svg">
<path d="M9.1665 6.66675C8.50346 6.66675 7.86758 6.93014 7.39874 7.39898C6.9299 7.86782 6.6665 8.50371 6.6665 9.16675V22.5001C6.6665 22.7211 6.7543 22.9331 6.91058 23.0893C7.06686 23.2456 7.27882 23.3334 7.49984 23.3334H22.4998C22.7209 23.3334 22.9328 23.2456 23.0891 23.0893C23.2454 22.9331 23.3332 22.7211 23.3332 22.5001V7.50008C23.3332 7.27907 23.2454 7.06711 23.0891 6.91083C22.9328 6.75455 22.7209 6.66675 22.4998 6.66675H9.1665ZM27.4998 6.66675C27.2788 6.66675 27.0669 6.75455 26.9106 6.91083C26.7543 7.06711 26.6665 7.27907 26.6665 7.50008V22.5001C26.6665 22.7211 26.7543 22.9331 26.9106 23.0893C27.0669 23.2456 27.2788 23.3334 27.4998 23.3334H42.4998C42.7209 23.3334 42.9328 23.2456 43.0891 23.0893C43.2454 22.9331 43.3332 22.7211 43.3332 22.5001V9.16675C43.3332 8.50371 43.0698 7.86782 42.6009 7.39898C42.1321 6.93014 41.4962 6.66675 40.8332 6.66675H27.4998ZM41.4232 8.57675C41.5005 8.65428 41.5618 8.74629 41.6036 8.84753C41.6453 8.94877 41.6667 9.05724 41.6665 9.16675V21.6667H28.3332L41.4232 8.57675ZM26.6665 27.5001C26.6665 27.2791 26.7543 27.0671 26.9106 26.9108C27.0669 26.7545 27.2788 26.6667 27.4998 26.6667H42.4998C42.7209 26.6667 42.9328 26.7545 43.0891 26.9108C43.2454 27.0671 43.3332 27.2791 43.3332 27.5001V40.8334C43.3332 41.4965 43.0698 42.1323 42.6009 42.6012C42.1321 43.07 41.4962 43.3334 40.8332 43.3334H27.4998C27.2788 43.3334 27.0669 43.2456 26.9106 43.0893C26.7543 42.9331 26.6665 42.7211 26.6665 42.5001V27.5001ZM28.3332 41.6667H40.8332C41.0542 41.6667 41.2661 41.579 41.4224 41.4227C41.5787 41.2664 41.6665 41.0544 41.6665 40.8334V28.3334H28.3332V41.6667ZM7.49984 26.6667C7.27882 26.6667 7.06686 26.7545 6.91058 26.9108C6.7543 27.0671 6.6665 27.2791 6.6665 27.5001V40.8334C6.6665 41.4965 6.9299 42.1323 7.39874 42.6012C7.86758 43.07 8.50346 43.3334 9.1665 43.3334H22.4998C22.7209 43.3334 22.9328 43.2456 23.0891 43.0893C23.2454 42.9331 23.3332 42.7211 23.3332 42.5001V27.5001C23.3332 27.2791 23.2454 27.0671 23.0891 26.9108C22.9328 26.7545 22.7209 26.6667 22.4998 26.6667H7.49984ZM21.6665 28.3334V41.6667H9.1665C9.057 41.6669 8.94852 41.6456 8.84729 41.6038C8.74605 41.562 8.65404 41.5008 8.5765 41.4234L21.6665 28.3334Z" fill="#7F98B6"/>
<path d="M8.33333 0C7.23898 0 6.15535 0.215548 5.1443 0.634337C4.13326 1.05313 3.2146 1.66696 2.44078 2.44078C0.877974 4.00358 0 6.1232 0 8.33333V41.6667C0 43.8768 0.877974 45.9964 2.44078 47.5592C3.2146 48.333 4.13326 48.9469 5.1443 49.3657C6.15535 49.7845 7.23898 50 8.33333 50H41.6667C43.8768 50 45.9964 49.122 47.5592 47.5592C49.122 45.9964 50 43.8768 50 41.6667V8.33333C50 7.23898 49.7845 6.15535 49.3657 5.1443C48.9469 4.13326 48.333 3.2146 47.5592 2.44078C46.7854 1.66696 45.8667 1.05313 44.8557 0.634337C43.8446 0.215548 42.761 0 41.6667 0H8.33333ZM3.33333 8.33333C3.33333 7.00725 3.86012 5.73548 4.7978 4.7978C5.73548 3.86012 7.00725 3.33333 8.33333 3.33333H41.6667C42.9927 3.33333 44.2645 3.86012 45.2022 4.7978C46.1399 5.73548 46.6667 7.00725 46.6667 8.33333V41.6667C46.6667 42.9927 46.1399 44.2645 45.2022 45.2022C44.2645 46.1399 42.9927 46.6667 41.6667 46.6667H8.33333C7.00725 46.6667 5.73548 46.1399 4.7978 45.2022C3.86012 44.2645 3.33333 42.9927 3.33333 41.6667V8.33333Z" fill="#7F98B6"/>
</svg>
