<svg width="46" height="46" viewBox="0 0 46 46" fill="none" xmlns="http://www.w3.org/2000/svg">
<g clip-path="url(#clip0_443_768)">
<path d="M2.68359 43.7C2.68359 44.9703 3.71334 46 4.98359 46H35.6503C36.9205 46 37.9503 44.9703 37.9503 43.7V19.1667C37.9503 18.7432 37.607 18.4 37.1836 18.4C36.7602 18.4 36.4169 18.7432 36.4169 19.1667V43.7C36.4169 44.1234 36.0737 44.4667 35.6503 44.4667H4.98359C4.56018 44.4667 4.21693 44.1234 4.21693 43.7V5.36665C4.21693 4.94323 4.56018 4.59998 4.98359 4.59998H31.7786C32.202 4.59998 32.5453 4.25674 32.5453 3.83332C32.5453 3.4099 32.202 3.06665 31.7786 3.06665H4.98359C3.71334 3.06665 2.68359 4.0964 2.68359 5.36665V43.7Z" fill="#003770"/>
<path d="M6.51667 42.9333H34.1167C34.5401 42.9333 34.8833 42.59 34.8833 42.1666V19.1666C34.8833 18.7432 34.5401 18.4 34.1167 18.4C33.6932 18.4 33.35 18.7432 33.35 19.1666V23.7666H21.0833V7.66663H26.45C26.8734 7.66663 27.2167 7.32339 27.2167 6.89997C27.2167 6.47655 26.8734 6.1333 26.45 6.1333H6.51667C6.09325 6.1333 5.75 6.47655 5.75 6.89997V42.1666C5.75 42.59 6.09325 42.9333 6.51667 42.9333ZM7.28333 25.3H19.55V41.4H7.28333V25.3ZM33.35 25.3V41.4H21.0833V25.3H33.35ZM7.28333 7.66663H19.55V23.7666H7.28333V7.66663Z" fill="#003770"/>
<path d="M9.58293 13.0331C9.78625 13.0331 9.98122 12.9523 10.125 12.8085L12.425 10.5085C12.7155 10.2077 12.7114 9.72951 12.4156 9.43378C12.1199 9.13805 11.6417 9.1339 11.3409 9.42444L9.0409 11.7244C8.8217 11.9437 8.75614 12.2734 8.87478 12.5598C8.99342 12.8463 9.2729 13.0331 9.58293 13.0331Z" fill="#C961DE"/>
<path d="M9.58293 16.8665C9.78625 16.8664 9.98122 16.7856 10.125 16.6418L16.2583 10.5085C16.5488 10.2077 16.5447 9.72951 16.249 9.43378C15.9532 9.13805 15.4751 9.1339 15.1742 9.42444L9.0409 15.5578C8.8217 15.777 8.75614 16.1067 8.87478 16.3932C8.99342 16.6796 9.2729 16.8664 9.58293 16.8665Z" fill="#C961DE"/>
<path d="M23.3837 30.6667C23.587 30.6667 23.782 30.5858 23.9257 30.4421L26.2257 28.1421C26.5163 27.8412 26.5121 27.3631 26.2164 27.0673C25.9207 26.7716 25.4425 26.7674 25.1417 27.058L22.8417 29.358C22.6225 29.5773 22.5569 29.907 22.6756 30.1934C22.7942 30.4798 23.0737 30.6666 23.3837 30.6667Z" fill="#C961DE"/>
<path d="M22.8417 34.2754C23.141 34.5747 23.6263 34.5747 23.9257 34.2754L30.0591 28.1421C30.3496 27.8412 30.3455 27.3631 30.0497 27.0673C29.754 26.7716 29.2758 26.7674 28.975 27.058L22.8417 33.1913C22.5424 33.4907 22.5424 33.976 22.8417 34.2754Z" fill="#C961DE"/>
<path d="M27.9844 8.43326C27.9844 8.85668 28.3276 9.19993 28.751 9.19993C34.7847 9.19993 34.8897 15.7933 34.8913 16.0999C34.8851 16.5233 35.2234 16.8716 35.6468 16.8777C36.0702 16.8839 36.4185 16.5456 36.4246 16.1222V16.1061V16.0999C36.4246 15.8178 36.4944 9.19993 42.5656 9.19993C42.989 9.19993 43.3323 8.85668 43.3323 8.43326C43.3323 8.00984 42.989 7.66659 42.5656 7.66659C36.5181 7.66659 36.4254 1.04719 36.4246 0.76659C36.4303 0.343172 36.0917 -0.00471058 35.6683 -0.0104267C35.2449 -0.0161429 34.897 0.322472 34.8913 0.74589V0.760457V0.76659C34.8913 1.04872 34.8215 7.66659 28.751 7.66659C28.3276 7.66659 27.9844 8.00984 27.9844 8.43326ZM35.6579 4.57232C36.287 6.23212 37.5004 7.60509 39.0704 8.43326C37.5004 9.26143 36.287 10.6344 35.6579 12.2942C35.0289 10.6344 33.8155 9.26143 32.2455 8.43326C33.8155 7.60509 35.0289 6.23212 35.6579 4.57232Z" fill="#C961DE"/>
<path d="M27.9849 11.4999V11.4953C27.9836 11.0719 27.6393 10.7297 27.2159 10.731C26.7925 10.7322 26.4503 11.0765 26.4516 11.4999C26.4516 11.6878 26.3872 16.0999 22.6182 16.0999C22.1948 16.0999 21.8516 16.4432 21.8516 16.8666C21.8516 17.29 22.1948 17.6333 22.6182 17.6333C26.3872 17.6333 26.4516 22.047 26.4516 22.2333V22.2379C26.4528 22.6613 26.7971 23.0035 27.2205 23.0022C27.6439 23.001 27.9862 22.6567 27.9849 22.2333C27.9849 22.0454 28.0493 17.6333 31.8182 17.6333C32.2416 17.6333 32.5849 17.29 32.5849 16.8666C32.5849 16.4432 32.2416 16.0999 31.8182 16.0999C28.0493 16.0999 27.9849 11.6862 27.9849 11.4999ZM29.0153 16.8666C28.239 17.3844 27.6179 18.1033 27.2182 18.9466C26.8186 18.1033 26.1975 17.3844 25.4212 16.8666C26.1976 16.349 26.8188 15.63 27.2182 14.7866C27.6177 15.63 28.2388 16.349 29.0153 16.8666Z" fill="#C961DE"/>
</g>
<defs>
<clipPath id="clip0_443_768">
<rect width="46" height="46" fill="white"/>
</clipPath>
</defs>
</svg>