<svg width="60" height="60" viewBox="0 0 60 60" fill="none" xmlns="http://www.w3.org/2000/svg">
<path d="M18.7208 52.0022C18.2031 52.0022 17.7832 51.5827 17.7832 51.0649V24.8152C17.7832 24.2971 18.2031 23.8772 18.7208 23.8772C19.2385 23.8772 19.6581 24.2971 19.6581 24.8152V51.0649C19.6581 51.5827 19.2385 52.0022 18.7208 52.0022Z" fill="#003770"/>
<path d="M42.1583 57.6271H17.7831C17.6375 57.6274 17.4944 57.5938 17.3642 57.5289L2.36412 50.029C2.0462 49.87 1.8457 49.5453 1.8457 49.1899V46.3774C1.8457 46.064 2.00226 45.7715 2.26284 45.5971L4.6582 44.0006V18.432L2.84992 13.9128C2.69062 13.5153 2.82074 13.0614 3.16578 12.808L17.2283 2.49597C17.3893 2.37787 17.5836 2.31436 17.7831 2.3147H42.1583C42.3574 2.3147 42.5514 2.37787 42.7121 2.49597L56.7746 12.808C57.1196 13.0614 57.2498 13.5153 57.0905 13.9128L55.2829 18.432V44.0006L57.6786 45.5947C57.9398 45.7687 58.0964 46.0626 58.0957 46.3774V49.1899C58.0957 49.5453 57.8952 49.87 57.5773 50.029L42.5772 57.5289C42.447 57.5938 42.3035 57.6274 42.1583 57.6271ZM18.0045 55.7522H41.9369L56.2208 48.6107V46.879L53.8251 45.285C53.5638 45.1106 53.4073 44.8163 53.408 44.5022V18.2524C53.408 18.133 53.4306 18.0148 53.4746 17.9046L55.0796 13.8912L41.8517 4.18993H18.0897L4.86042 13.8912L6.46545 17.9046C6.50974 18.0148 6.53274 18.133 6.53343 18.2524V44.5022C6.53343 44.8157 6.37653 45.1082 6.11629 45.2822L3.72059 46.879V48.6107L18.0045 55.7522Z" fill="#003770"/>
<path d="M41.2204 22.0022H18.7207C18.5755 22.0022 18.4316 21.9689 18.3015 21.904L3.30175 14.4038C2.83826 14.1724 2.65081 13.609 2.88255 13.1459C3.11429 12.6827 3.67768 12.4949 4.14083 12.7267L18.9418 20.1273H40.9996L55.8013 12.7256C56.1013 12.576 56.4581 12.5972 56.7379 12.7819C57.0173 12.9663 57.1773 13.2856 57.1571 13.6203C57.1368 13.9547 56.9404 14.2531 56.6407 14.4028L41.6406 21.903C41.5101 21.9682 41.3663 22.0022 41.2204 22.0022Z" fill="#003770"/>
<path d="M41.2205 25.7525H18.7208C18.5756 25.7529 18.4317 25.7189 18.3016 25.654L5.17675 19.0914C4.71326 18.8596 4.52581 18.2966 4.75755 17.8338C4.98929 17.3703 5.55268 17.1825 6.01583 17.4142L18.9419 23.8773H40.9997L53.9265 17.4136C54.39 17.1818 54.953 17.3693 55.1848 17.8324C55.4165 18.2959 55.2291 18.859 54.7659 19.0907L41.6407 25.6533C41.5102 25.7185 41.3664 25.7525 41.2205 25.7525Z" fill="#003770"/>
<path d="M41.2205 52.0022H18.7208C18.5756 52.0029 18.4317 51.9689 18.3016 51.904L5.17675 45.3414C4.71326 45.1096 4.52581 44.5466 4.75755 44.0831C4.98929 43.62 5.55268 43.4325 6.01583 43.6642L18.9419 50.1273H40.9997L53.9265 43.6636C54.39 43.4318 54.953 43.6193 55.1848 44.0824C55.4165 44.5452 55.2291 45.109 54.7659 45.3407L41.6407 51.9033C41.5102 51.9685 41.3664 52.0022 41.2205 52.0022Z" fill="#003770"/>
<path d="M41.2205 52.0022C40.7031 52.0022 40.2832 51.5827 40.2832 51.0649V24.8152C40.2832 24.2971 40.7031 23.8772 41.2205 23.8772C41.7385 23.8772 42.1584 24.2971 42.1584 24.8152V51.0649C42.1584 51.5827 41.7385 52.0022 41.2205 52.0022Z" fill="#003770"/>
<path d="M18.721 22.0023C18.4007 22.0023 18.1023 21.8389 17.9303 21.5684C17.758 21.2982 17.7363 20.9586 17.8713 20.6685L24.0476 7.43276L17.3645 4.09155C17.0645 3.94186 16.8677 3.64351 16.8475 3.30877C16.8269 2.97472 16.9869 2.65474 17.2663 2.47003C17.5458 2.28533 17.9028 2.26335 18.2026 2.41339L25.7024 6.16316C26.1567 6.39078 26.3475 6.93769 26.133 7.39774L19.5704 21.4602C19.4162 21.7909 19.0856 22.0023 18.721 22.0023Z" fill="#003770"/>
<path d="M41.2204 22.0023C40.8561 22.0026 40.5245 21.7915 40.3703 21.4616L33.8077 7.39906C33.5932 6.93866 33.784 6.39141 34.2383 6.16447L41.7381 2.41401C42.2013 2.18261 42.7647 2.37041 42.9964 2.83321C43.2282 3.29635 43.0407 3.85974 42.5772 4.09149L35.8938 7.4327L42.0701 20.6685C42.2054 20.9586 42.1834 21.2981 42.0114 21.5683C41.8394 21.8389 41.5411 22.0023 41.2204 22.0023Z" fill="#003770"/>
<path d="M34.6584 7.93983H25.283C24.7656 7.93983 24.3457 7.52029 24.3457 7.00256C24.3457 6.48448 24.7656 6.06494 25.283 6.06494H34.6584C35.1758 6.06494 35.5957 6.48448 35.5957 7.00256C35.5957 7.52029 35.1758 7.93983 34.6584 7.93983Z" fill="#003770"/>
<path d="M41.22 37.9397H18.7204C18.5933 37.9397 18.4677 37.9139 18.3509 37.8638L5.22571 32.2388C4.7581 32.0304 4.54387 31.4845 4.74608 31.0132C4.94796 30.5421 5.49109 30.3207 5.96488 30.516L18.9123 36.0648H40.9993L53.926 29.6011C54.3895 29.3693 54.9526 29.5568 55.1843 30.0199C55.4161 30.4827 55.2286 31.0465 54.7655 31.2782L41.6402 37.8408C41.5098 37.906 41.3659 37.9397 41.22 37.9397Z" fill="#003770"/>
<path d="M8.40812 27.6273C8.02875 27.6273 7.68714 27.399 7.54191 27.0488C7.39703 26.6986 7.47737 26.2952 7.74516 26.0271L9.62005 24.1518C9.98775 23.7965 10.5728 23.8016 10.9346 24.1635C11.2958 24.5254 11.301 25.1097 10.9456 25.4777L9.07073 27.3526C8.89529 27.5284 8.65668 27.6273 8.40812 27.6273Z" fill="#C961DE"/>
<path d="M10.283 30.4398C9.90364 30.4398 9.56204 30.2112 9.41716 29.861C9.27193 29.5108 9.35227 29.1077 9.62006 28.8396L12.4326 26.0271C12.8006 25.6718 13.3853 25.6769 13.7468 26.0384C14.1087 26.4003 14.1138 26.985 13.7585 27.3527L10.9456 30.1652C10.7702 30.3413 10.5316 30.4398 10.283 30.4398Z" fill="#C961DE"/>
<path d="M22.4706 31.3771C22.0912 31.3771 21.7496 31.1487 21.6044 30.7986C21.4595 30.4484 21.5399 30.045 21.8077 29.7768L23.6825 27.9019C24.0502 27.5469 24.6353 27.5517 24.9971 27.9136C25.3583 28.2751 25.3634 28.8598 25.0081 29.2275L23.1332 31.1024C22.9578 31.2785 22.7192 31.3771 22.4706 31.3771Z" fill="#C961DE"/>
<path d="M24.3455 34.1899C23.9661 34.1899 23.6245 33.9616 23.4797 33.6111C23.3344 33.2609 23.4148 32.8578 23.6826 32.5897L28.3703 27.9019C28.738 27.5469 29.323 27.5517 29.6842 27.9136C30.046 28.2751 30.0512 28.8598 29.6959 29.2275L25.0081 33.9153C24.8327 34.091 24.5941 34.1899 24.3455 34.1899Z" fill="#C961DE"/>
<path d="M22.4706 43.5647C22.0912 43.5647 21.7496 43.3364 21.6044 42.9862C21.4595 42.636 21.5399 42.2326 21.8077 41.9645L23.6825 40.0896C24.0502 39.7343 24.6353 39.7394 24.9971 40.1009C25.3583 40.4628 25.3634 41.0475 25.0081 41.4152L23.1332 43.2901C22.9578 43.4662 22.7192 43.5647 22.4706 43.5647Z" fill="#C961DE"/>
<path d="M24.3455 46.3775C23.9661 46.3775 23.6245 46.1492 23.4797 45.7984C23.3344 45.4482 23.4148 45.0455 23.6826 44.777L28.3703 40.0896C28.738 39.7343 29.323 39.7394 29.6842 40.1009C30.046 40.4628 30.0512 41.0475 29.6959 41.4152L25.0081 46.1029C24.8327 46.2787 24.5941 46.3775 24.3455 46.3775Z" fill="#C961DE"/>
<path d="M8.40812 39.815C8.02875 39.815 7.68714 39.5867 7.54191 39.2365C7.39703 38.8857 7.47737 38.4829 7.74516 38.2145L9.62005 36.3396C9.98775 35.9842 10.5728 35.9894 10.9346 36.3512C11.2958 36.7124 11.301 37.2974 10.9456 37.6651L9.07073 39.5404C8.89529 39.7162 8.65668 39.815 8.40812 39.815Z" fill="#C961DE"/>
<path d="M10.283 42.6274C9.90364 42.6274 9.56204 42.3987 9.41716 42.0485C9.27193 41.6983 9.35227 41.2953 9.62006 41.0272L12.4326 38.2143C12.8006 37.859 13.3853 37.8641 13.7468 38.226C14.1087 38.5879 14.1138 39.1722 13.7585 39.5402L10.9456 42.3527C10.7702 42.5282 10.5316 42.6274 10.283 42.6274Z" fill="#C961DE"/>
</svg>