<svg width="46" height="46" viewBox="0 0 46 46" fill="none" xmlns="http://www.w3.org/2000/svg">
<g clip-path="url(#clip0_443_805)">
<path d="M25.6755 1.07717C24.9568 0.387819 23.9996 0.00260986 23.0037 0.00189564C22.0078 0.00118143 21.0501 0.385018 20.3304 1.07333L0.702153 20.0322C0.263361 20.4561 0.0109132 21.0369 0.000345568 21.6468C-0.0102221 22.2568 0.221956 22.846 0.645803 23.2848C1.06965 23.7236 1.65045 23.976 2.26042 23.9866C2.8704 23.9972 3.45959 23.765 3.89839 23.3412L4.60065 22.6634V42.9333C4.60065 43.7467 4.92375 44.5267 5.49886 45.1018C6.07397 45.6769 6.85399 46 7.66732 46H38.334C39.1473 46 39.9273 45.6769 40.5024 45.1018C41.0776 44.5267 41.4006 43.7467 41.4006 42.9333V22.6627L42.1029 23.3412C42.5417 23.7649 43.1309 23.997 43.7408 23.9863C44.3507 23.9757 44.9314 23.7232 45.3551 23.2844C45.7789 22.8456 46.0109 22.2565 46.0003 21.6466C45.9897 21.0367 45.7372 20.456 45.2984 20.0322L39.1006 14.0453V4.38687C39.333 4.25336 39.5261 4.0611 39.6607 3.82938C39.7952 3.59766 39.8665 3.33462 39.8673 3.06667V1.53333C39.8673 1.12667 39.7058 0.736658 39.4182 0.449103C39.1307 0.161547 38.7406 0 38.334 0L32.2006 0C31.794 0 31.404 0.161547 31.1164 0.449103C30.8289 0.736658 30.6673 1.12667 30.6673 1.53333V3.06667C30.6681 3.33462 30.7394 3.59766 30.874 3.82938C31.0085 4.0611 31.2017 4.25336 31.434 4.38687V6.63933L25.6755 1.07717ZM39.8673 42.9333C39.8673 43.34 39.7058 43.73 39.4182 44.0176C39.1307 44.3051 38.7406 44.4667 38.334 44.4667H7.66732C7.26065 44.4667 6.87064 44.3051 6.58309 44.0176C6.29553 43.73 6.13399 43.34 6.13399 42.9333V21.183L23.0083 4.89593L39.8673 21.1815V42.9333ZM32.2006 1.53333H38.334V3.06667H32.2006V1.53333ZM37.5673 4.6V12.5641L32.9673 8.11746V4.6H37.5673ZM31.6525 8.98226L31.6686 8.9976L37.7827 14.9009L37.8073 14.9247L44.2327 21.1347C44.3052 21.2046 44.3632 21.288 44.4035 21.3803C44.4437 21.4726 44.4654 21.5719 44.4672 21.6726C44.4691 21.7733 44.4511 21.8733 44.4142 21.967C44.3774 22.0607 44.3225 22.1463 44.2526 22.2188C44.1088 22.3605 43.916 22.4415 43.7141 22.445C43.5122 22.4486 43.3166 22.3745 43.1678 22.2379L23.5373 3.27827C23.3944 3.14031 23.2035 3.06321 23.0049 3.06321C22.8062 3.06321 22.6153 3.14031 22.4724 3.27827L2.83732 22.2379C2.76662 22.3105 2.68134 22.3672 2.58712 22.4043C2.49289 22.4414 2.39185 22.4582 2.29069 22.4534C2.13896 22.4508 1.9914 22.4033 1.8667 22.3168C1.742 22.2303 1.64577 22.1088 1.59019 21.9676C1.53461 21.8264 1.52219 21.6719 1.55449 21.5236C1.58679 21.3753 1.66237 21.24 1.77165 21.1347L21.3983 2.17427C21.8312 1.7607 22.4071 1.53031 23.0058 1.53116C23.6045 1.53202 24.1797 1.76407 24.6114 2.17887L31.6525 8.98226Z" fill="#003770"/>
<path d="M16.8668 18.3999C12.9974 18.3999 9.9668 21.9051 9.9668 26.3802C9.9668 31.145 13.3217 37.7268 22.777 40.6003C22.9225 40.6443 23.0777 40.6443 23.2232 40.6003C32.6785 37.7276 36.0335 31.145 36.0335 26.3802C36.0335 21.9051 33.0028 18.3999 29.1335 18.3999C26.8803 18.3958 24.7018 19.207 23.0001 20.6838C21.2985 19.207 19.1199 18.3958 16.8668 18.3999ZM23.5813 22.254C24.3066 21.5183 25.1711 20.9343 26.1243 20.5359C27.0775 20.1375 28.1004 19.9326 29.1335 19.9333C32.1426 19.9333 34.5001 22.7653 34.5001 26.3802C34.5001 30.5838 31.4833 36.4028 23.0001 39.0647C14.517 36.4028 11.5001 30.5838 11.5001 26.3802C11.5001 22.7653 13.8576 19.9333 16.8668 19.9333C17.8999 19.9326 18.9228 20.1375 19.876 20.5359C20.8292 20.9343 21.6936 21.5183 22.419 22.254C22.4908 22.3372 22.5796 22.404 22.6795 22.4499C22.7793 22.4958 22.8879 22.5197 22.9978 22.52C23.1085 22.5204 23.218 22.4968 23.3187 22.4509C23.4194 22.405 23.509 22.3378 23.5813 22.254Z" fill="#C961DE"/>
<path d="M14.5665 26.3801C14.5665 24.7548 15.4459 22.9999 16.8665 22.9999C17.0699 22.9999 17.2649 22.9191 17.4087 22.7753C17.5524 22.6316 17.6332 22.4366 17.6332 22.2332C17.6332 22.0299 17.5524 21.8349 17.4087 21.6911C17.2649 21.5473 17.0699 21.4666 16.8665 21.4666C14.4669 21.4666 13.0332 23.9651 13.0332 26.3801C13.0332 26.5835 13.114 26.7785 13.2578 26.9222C13.4015 27.066 13.5965 27.1468 13.7999 27.1468C14.0032 27.1468 14.1982 27.066 14.342 26.9222C14.4858 26.7785 14.5665 26.5835 14.5665 26.3801Z" fill="#C961DE"/>
<path d="M19.6355 34.2109C17.7943 33.1128 16.3128 31.5021 15.3721 29.5757C15.3295 29.4844 15.2693 29.4024 15.1951 29.3344C15.1208 29.2664 15.0338 29.2137 14.9392 29.1792C14.8445 29.1448 14.744 29.1294 14.6434 29.1338C14.5428 29.1382 14.444 29.1624 14.3528 29.205C14.2615 29.2476 14.1795 29.3077 14.1115 29.382C14.0435 29.4563 13.9908 29.5432 13.9563 29.6379C13.9219 29.7325 13.9065 29.833 13.9109 29.9336C13.9153 30.0343 13.9395 30.133 13.9821 30.2243C15.0468 32.4178 16.7273 34.2539 18.8182 35.5081C18.9034 35.5635 18.9987 35.6014 19.0987 35.6195C19.1986 35.6377 19.3012 35.6359 19.4004 35.6141C19.4996 35.5923 19.5935 35.551 19.6766 35.4926C19.7598 35.4342 19.8304 35.3599 19.8846 35.2739C19.9387 35.188 19.9753 35.0921 19.9921 34.9919C20.0088 34.8918 20.0055 34.7892 19.9824 34.6903C19.9592 34.5914 19.9166 34.4981 19.8571 34.4158C19.7975 34.3335 19.7222 34.2639 19.6355 34.2109Z" fill="#C961DE"/>
</g>
<defs>
<clipPath id="clip0_443_805">
<rect width="46" height="46" fill="white"/>
</clipPath>
</defs>
</svg>