<svg width="41" height="41" viewBox="0 0 41 41" fill="none" xmlns="http://www.w3.org/2000/svg">
<path d="M13.9434 15.3799L38.0204 39.3709L39.4614 37.9299L15.3844 13.9409L13.9434 15.3799Z" fill="#003770"/>
<path d="M7.00072 19.3906L5.03125 19.9185L9.31242 35.8906L11.2819 35.3627L7.00072 19.3906Z" fill="#003770"/>
<path d="M19.9256 5.02709L19.3984 6.99463L35.3706 11.2741L35.8977 9.30661L19.9256 5.02709Z" fill="#003770"/>
<path d="M39.2947 21.764L18.2397 9.78198L17.2188 11.544L38.2758 23.526L39.2947 21.764Z" fill="#003770"/>
<path d="M9.78516 18.2351L21.6972 39.1161L23.4622 38.0971L11.5502 17.2161L9.78516 18.2351Z" fill="#003770"/>
<path d="M15.17 38.518H2.04V17.755C10.481 17.243 17.246 10.481 17.755 2.037H38.547V15.097H40.586V0H0V40.553H15.17V38.518ZM2.04 2.037H15.715C15.213 9.357 9.358 15.216 2.04 15.717V2.037Z" fill="#003770"/>
</svg>