<svg width="50" height="50" viewBox="0 0 50 50" fill="none" xmlns="http://www.w3.org/2000/svg">
<g clip-path="url(#clip0)">
<path d="M49.917 48.0701H0V50.0001H49.917V48.0701Z" fill="#003770"/>
<path d="M41.7848 7.87793V41.7879H8.2168V7.87793H41.7848ZM43.7848 5.87793H6.2168V43.7879H43.7848V5.87793Z" fill="#003770"/>
<path d="M37.7705 37.8881H12.2285V12.1121H16.9995L37.7705 37.8881Z" stroke="#003770" stroke-width="2" stroke-miterlimit="10"/>
<path d="M39.9168 31.9359L28.6988 17.8589L27.1348 19.1049L39.8848 35.1049L39.9168 35.0799V31.9359Z" fill="#003770"/>
<path d="M39.9169 24.796L37.0369 21.116L35.4629 22.349L39.9169 28.04V24.796Z" fill="#003770"/>
<path d="M49.5002 0H0.660156V1.93H49.5002V0Z" fill="#003770"/>
<path d="M1.93 0.0290527H0V49.7321H1.93V0.0290527Z" fill="#003770"/>
<path d="M50.0003 0.0290527H48.0703V49.7321H50.0003V0.0290527Z" fill="#003770"/>
</g>
<defs>
<clipPath id="clip0">
<rect width="50" height="50" fill="white"/>
</clipPath>
</defs>
</svg>