<svg width="46" height="46" viewBox="0 0 46 46" fill="none" xmlns="http://www.w3.org/2000/svg">
<path d="M17.085 20.1258L15.3828 21.1758L19.6747 28.1335L21.3769 27.0835L17.085 20.1258Z" fill="#003770"/>
<path d="M24.0655 15.8739L22.3633 16.9241L26.656 23.8818L28.3582 22.8316L24.0655 15.8739Z" fill="#003770"/>
<path d="M43.166 43.5H25.292C25.648 43.075 26.017 42.576 26.375 42H41.333V3.333H21.828C22.289 2.731 22.716 2.285 23.018 2H43.166V43.5ZM22.017 23.617C27.485 31.335 26.819 36.753 25.222 40H5.583V5.333H18.454C16.782 9.344 16.297 15.541 22.017 23.617ZM23.649 22.46C18.024 14.519 18.882 8.761 20.582 5.333H39.333V40H27.394C27.715 39.204 27.981 38.319 28.151 37.342C28.941 32.799 27.426 27.792 23.649 22.46ZM2 2H20.384C20.086 2.388 19.777 2.834 19.473 3.333H3.583V42H23.958C23.357 42.755 22.8 43.252 22.494 43.5H2V2ZM0 45.5H45.167V0H0V45.5Z" fill="#003770"/>
</svg>